HIERARCHY
ROOT hip
{
	OFFSET 0.000000 0.000000 0.000000 
	CHANNELS 6 Xposition Yposition Zposition Zrotation Xrotation Yrotation
	JOINT abdomen
	{
		OFFSET 0.000000 3.402643 0.000000 
		CHANNELS 3 Zrotation Xrotation Yrotation
		JOINT chest
		{
			OFFSET 0.000000 8.438565 -0.680529 
			CHANNELS 3 Zrotation Xrotation Yrotation
			JOINT neck
			{
				OFFSET 0.000000 10.207942 -0.272212 
				CHANNELS 3 Zrotation Xrotation Yrotation
				JOINT head
				{
					OFFSET 0.000000 3.130431 0.000000 
					CHANNELS 3 Zrotation Xrotation Yrotation
					End Site
					{
						OFFSET 0.000000 3.130435 0.000000 
					}
				}
			}
			JOINT lCollar
			{
				OFFSET 3.470700 6.669187 -0.816635 
				CHANNELS 3 Zrotation Xrotation Yrotation
				JOINT lShldr
				{
					OFFSET 3.198488 0.000000 0.000000 
					CHANNELS 3 Zrotation Xrotation Yrotation
					JOINT lForeArm
					{
						OFFSET 10.139888 0.000000 0.000000 
						CHANNELS 3 Zrotation Xrotation Yrotation
						JOINT lHand
						{
							OFFSET 8.370511 0.000000 0.000000 
							CHANNELS 3 Zrotation Xrotation Yrotation
							End Site
							{
								OFFSET 4.083176 0.000000 0.000000 
							}
						}
					}
				}
			}
			JOINT rCollar
			{
				OFFSET -3.470700 6.669187 -0.816635 
				CHANNELS 3 Zrotation Xrotation Yrotation
				JOINT rShldr
				{
					OFFSET -3.198488 0.000000 0.000000 
					CHANNELS 3 Zrotation Xrotation Yrotation
					JOINT rForeArm
					{
						OFFSET -10.139888 0.000000 0.000000 
						CHANNELS 3 Zrotation Xrotation Yrotation
						JOINT rHand
						{
							OFFSET -8.370511 0.000000 0.000000 
							CHANNELS 3 Zrotation Xrotation Yrotation
							End Site
							{
								OFFSET -4.083176 0.000000 0.000000 
							}
						}
					}
				}
			}
		}
	}
	JOINT lThigh
	{
		OFFSET 5.308129 -1.633274 1.361059 
		CHANNELS 3 Zrotation Xrotation Yrotation
		JOINT lShin
		{
			OFFSET -2.041588 -20.007561 0.000000 
			CHANNELS 3 Zrotation Xrotation Yrotation
			JOINT lFoot
			{
				OFFSET 0.000000 -19.190928 -1.224953 
				CHANNELS 3 Zrotation Xrotation Yrotation
				End Site
				{
					OFFSET 0.000000 -2.449906 4.627600 
				}
			}
		}
	}
	JOINT rThigh
	{
		OFFSET -5.308129 -1.633274 1.361059 
		CHANNELS 3 Zrotation Xrotation Yrotation
		JOINT rShin
		{
			OFFSET 2.041588 -20.007561 0.000000 
			CHANNELS 3 Zrotation Xrotation Yrotation
			JOINT rFoot
			{
				OFFSET 0.000000 -19.190928 -1.224953 
				CHANNELS 3 Zrotation Xrotation Yrotation
				End Site
				{
					OFFSET 0.000000 -2.449906 4.627600 
				}
			}
		}
	}
}
MOTION
Frames: 6
Frame Time: 0.033333
3.375404 47.892391 -1.257470 -3.693461 -1.910113 -32.886951 -0.000000 -0.000002 -0.000000 -2.402457 0.556150 -62.437607 -0.587584 4.286875 95.834839 -0.954937 -15.993991 -0.145955 -2.000757 -0.069240 1.990978 -18.545898 -45.322018 13.311183 5.438175 7.316595 -68.150566 24.202286 -28.055670 34.733006 1.990970 -0.069577 -2.000746 4.601105 13.378658 96.975754 -14.616117 0.208459 91.174568 61.868359 -72.814545 73.700249 12.159277 -23.823744 3.774294 -10.123663 45.667488 5.095783 0.174314 -17.549997 1.422308 -12.033166 -1.994427 10.137544 12.490311 33.381599 -1.450362 -1.201991 -36.854431 -2.222556 
3.437515 47.917038 -1.440818 -3.693358 -1.861373 -32.922874 -0.000000 -0.000002 -0.000000 -2.695359 0.341418 -64.154289 -0.313663 4.941329 96.960548 -0.954937 -15.993991 -0.145955 -2.000757 -0.069240 1.990978 -15.748430 -44.943577 16.196583 5.380369 7.405954 -67.096512 22.927383 -29.401073 33.782162 1.990970 -0.069577 -2.000746 4.272048 14.115291 99.486748 -14.611138 0.888232 88.606789 66.881882 -71.170952 79.093849 12.176823 -23.890390 3.596463 -10.096901 45.542110 5.096157 -0.008450 -17.128788 1.501156 -11.954460 -2.261583 10.104607 12.575498 33.564056 -1.512314 -1.361191 -36.719917 -2.316507 
3.550090 48.004646 -1.710777 -3.693257 -1.812660 -32.968533 -0.000000 -0.000002 -0.000000 -2.871115 0.224328 -65.320770 -0.039241 5.498051 97.562332 -0.954937 -15.993991 -0.145955 -2.000757 -0.069240 1.990978 -13.392468 -42.925568 18.188982 5.327700 7.544357 -65.744255 22.904499 -31.806444 31.060322 1.990970 -0.069577 -2.000746 4.135654 14.831253 102.222328 -14.541121 1.778700 85.184746 73.437408 -67.900208 86.669579 12.155394 -23.975008 3.421848 -9.825665 44.853786 4.892344 -0.187631 -16.388409 1.657887 -11.683906 -2.617290 10.011911 12.480644 33.406162 -1.459660 -1.490014 -36.176094 -2.372186 
3.673382 48.128059 -2.014719 -3.693179 -1.773662 -33.005722 -0.000000 -0.000002 -0.000000 -2.890642 0.214571 -65.721581 0.304362 5.917874 97.488190 -0.954937 -15.993991 -0.145955 -2.000757 -0.069240 1.990978 -11.651213 -40.141609 19.160709 5.227866 7.725865 -63.784176 24.083155 -34.729462 28.558867 1.990970 -0.069577 -2.000746 3.669453 15.231647 104.337181 -14.444121 2.574923 82.150734 76.571297 -65.103813 90.946983 12.149602 -24.039923 3.256046 -9.481001 43.857437 4.645751 -0.349643 -15.429127 1.944132 -11.535879 -2.926891 9.898902 12.293813 32.994385 -1.329782 -1.394426 -35.518623 -2.235422 
3.767711 48.260227 -2.300092 -3.683040 -1.578789 -33.158260 -0.000000 -0.000002 -0.000000 -2.724655 0.341416 -65.189308 0.726830 6.142074 96.543442 -0.954937 -15.993991 -0.145955 -2.000757 -0.069240 1.990978 -11.353044 -37.239746 17.808241 5.076705 7.983398 -61.022877 26.394169 -37.602188 28.428308 1.990970 -0.069577 -2.000746 3.443859 15.198366 105.312141 -14.396621 2.885248 80.948669 74.201981 -65.250565 89.089035 12.155774 -24.114008 3.056358 -9.165480 42.897106 4.419967 -0.526482 -14.584366 2.309080 -11.319313 -3.261573 9.749427 12.012233 32.406437 -1.219077 -1.225113 -34.729362 -2.010477 
3.793358 48.373817 -2.514310 -3.663034 -1.286433 -33.402668 -0.000000 -0.000002 -0.000000 -2.363438 0.663499 -63.498001 1.257139 6.121578 94.612137 -0.954937 -15.993991 -0.145955 -2.000757 -0.069240 1.990978 -12.441965 -35.007336 13.875632 4.853316 8.329185 -57.045628 29.650314 -39.871376 32.681160 1.990970 -0.069577 -2.000746 3.159193 14.439499 104.455330 -14.480845 2.355428 83.002571 60.045975 -70.058357 74.220413 12.265051 -24.248409 2.896894 -8.886635 42.141361 4.214874 -0.687795 -13.932243 2.709524 -11.125013 -3.573772 9.602309 11.721785 31.779175 -1.076998 -0.974525 -34.033493 -1.663112 
